<svg width="32" height="32" viewBox="0 0 32 32" fill="none" xmlns="http://www.w3.org/2000/svg">
<g id="search">
<path id="Union" fill-rule="evenodd" clip-rule="evenodd" d="M9.7 15.65C9.7 12.3639 12.3639 9.7 15.65 9.7C18.9361 9.7 21.6 12.3639 21.6 15.65C21.6 17.2528 20.9662 18.7076 19.9356 19.7774C19.9063 19.7999 19.8781 19.8246 19.8513 19.8515C19.8245 19.8783 19.7998 19.9065 19.7773 19.9358C18.7075 20.9663 17.2527 21.6 15.65 21.6C12.3639 21.6 9.7 18.9361 9.7 15.65ZM20.4249 21.6272C19.1162 22.674 17.4562 23.3 15.65 23.3C11.425 23.3 8 19.875 8 15.65C8 11.425 11.425 8 15.65 8C19.875 8 23.3 11.425 23.3 15.65C23.3 17.4563 22.674 19.1164 21.627 20.4251L24.7509 23.549C25.0828 23.8809 25.0828 24.4191 24.7509 24.751C24.4189 25.083 23.8807 25.083 23.5488 24.751L20.4249 21.6272Z" fill="#A7A7A7"/>
</g>
</svg>
